{"title":"Dehraadun Diary (2013) - Hindi - CAM - Untouched","uid":8012025,"size":656038257,"categoryP":"video","categoryS":"movies","magnet":"?xt=urn:btih:72d9ab93c4ea3f89d5a1ac3d5698c29b5bbd6931&amp;dn=Dehraadun+Diary+%282013%29+-+Hindi+-+CAM+-+Untouched&amp;tr=udp%3A%2F%2Ftracker.openbittorrent.com%3A80&amp;tr=udp%3A%2F%2Fopen.demonii.com%3A1337&amp;tr=udp%3A%2F%2Ftracker.coppersurfer.tk%3A6969&amp;tr=udp%3A%2F%2Fexodus.desync.com%3A6969","seeders":1,"leechers":1,"uploader":"HDvideos","files":2,"time":1358014039,"description":"mastitorrents.com\n  &lt;a href=&quot;\nhttp://mastitorrents.com/forums/index.php&quot; rel=&quot;nofollow&quot; target=&quot;_NEW&quot;&gt;\nhttp://mastitorrents.com/forums/index.php&lt;/a&gt;\n  &lt;a href=&quot;\nhttp://thepiratebay.se/user/HDvideos/0/7&quot; rel=&quot;nofollow&quot; target=&quot;_NEW&quot;&gt;\nhttp://thepiratebay.se/user/HDvideos/0/7&lt;/a&gt;\n\nDehraadun Diary (2013) - Hindi - CAM - Untouched\n\nFormat : MPEG-PS\nFile size : 626 MiB\nDuration : 1h 35mn\nOverall bit rate : 917 Kbps\n\nVideo\nID : 224 (0xE0)\nFormat : MPEG Video\nFormat version : Version 2\nFormat settings, BVOP : Yes\nFormat settings, Matrix : Custom\nFormat settings, GOP : Variable\nDuration : 1h 35mn\nBit rate : 835 Kbps\nMaximum bit rate : 1 150 Kbps\nWidth : 352 pixels\nHeight : 288 pixels\nDisplay aspect ratio : 1.222\nFrame rate : 25.000 fps\nStandard : PAL\nColor space : YUV\nBit depth : 8 bits\nScan type : Progressive\nCompression mode : Lossy\nBits/(Pixel*Frame) : 0.329\nStream size : 570 MiB (91%)\n\nAudio\nID : 192 (0xC0)\nFormat : MPEG Audio\nFormat version : Version 1\nFormat profile : Layer 2\nDuration : 1h 35mn\nBit rate mode : Constant\nBit rate : 64.0 Kbps\nChannel(s) : 2 channels\nSampling rate : 48.0 KHz\nCompression mode : Lossy\nStream size : 43.7 MiB (7%)\n\nScreens: &lt;a href=&quot;\nhttp://i.imgur.com/pBNKK.jpg&quot; rel=&quot;nofollow&quot; target=&quot;_NEW&quot;&gt;\nhttp://i.imgur.com/pBNKK.jpg&lt;/a&gt;","torrent":{"xt":"urn:btih:72d9ab93c4ea3f89d5a1ac3d5698c29b5bbd6931","amp;dn":"Dehraadun+Diary+%282013%29+-+Hindi+-+CAM+-+Untouched","amp;tr":["udp%3A%2F%2Ftracker.openbittorrent.com%3A80","udp%3A%2F%2Fopen.demonii.com%3A1337","udp%3A%2F%2Ftracker.coppersurfer.tk%3A6969","udp%3A%2F%2Fexodus.desync.com%3A6969"],"infoHash":"72d9ab93c4ea3f89d5a1ac3d5698c29b5bbd6931","infoHashBuffer":{"type":"Buffer","data":[114,217,171,147,196,234,63,137,213,161,172,61,86,152,194,155,91,189,105,49]},"announce":[],"urlList":[]}}